<svg width="51" height="35" viewBox="0 0 51 35" fill="none" xmlns="http://www.w3.org/2000/svg">
<path d="M44.625 5.54175H38.25C38.25 2.5855 35.3812 0.166748 31.875 0.166748H6.375C2.86875 0.166748 0 2.5855 0 5.54175V18.0834C0 21.0397 2.86875 23.4584 6.375 23.4584V28.8334L12.75 23.4584C12.75 26.4147 15.6187 28.8334 19.125 28.8334H36.125L42.5 34.2084V28.8334H44.625C48.1312 28.8334 51 26.4147 51 23.4584V10.9167C51 7.9605 48.1312 5.54175 44.625 5.54175ZM6.375 19.8751C5.22325 19.8751 4.25 19.0545 4.25 18.0834V5.54175C4.25 4.57066 5.22325 3.75008 6.375 3.75008H31.875C33.0267 3.75008 34 4.57066 34 5.54175V7.33342H20.1875C18.7789 7.33436 17.4283 7.80658 16.4322 8.64638C15.4362 9.48618 14.8761 10.6249 14.875 11.8126V19.8751H6.375ZM46.75 23.4584C46.75 24.4295 45.7767 25.2501 44.625 25.2501H19.125C17.9732 25.2501 17 24.4295 17 23.4584V11.8126C17 10.3309 18.4301 9.12508 20.1875 9.12508H44.625C45.7767 9.12508 46.75 9.94567 46.75 10.9167V23.4584Z" fill="black"/>
</svg>
