<svg width="35" height="28" viewBox="0 0 35 28" fill="none" xmlns="http://www.w3.org/2000/svg">
<path d="M33.6269 22.8503C32.7489 21.2785 31.4748 19.8508 29.8756 18.6467C28.2812 17.4392 26.3925 16.4764 24.3138 15.8116C24.2952 15.8045 24.2766 15.801 24.2579 15.794C27.1575 14.2111 29.0425 11.6327 29.0425 8.72362C29.0425 3.90452 23.8763 0 17.5 0C11.1237 0 5.95752 3.90452 5.95752 8.72362C5.95752 11.6327 7.84248 14.2111 10.7421 15.7975C10.7234 15.8045 10.7048 15.808 10.6862 15.8151C8.60112 16.4799 6.73012 17.4332 5.12442 18.6503C3.52667 19.8553 2.25278 21.2827 1.37311 22.8538C0.508926 24.3918 0.0428512 26.0409 0.000116384 27.7116C-0.00112585 27.7491 0.00758698 27.7864 0.0257417 27.8214C0.0438965 27.8564 0.0711257 27.8882 0.105825 27.9151C0.140524 27.942 0.181991 27.9633 0.227783 27.9779C0.273575 27.9925 0.322765 28 0.372454 28H3.16499C3.36977 28 3.53267 27.8769 3.53733 27.7256C3.63041 25.01 5.07322 22.4668 7.62373 20.5392C10.2627 18.5447 13.7673 17.4472 17.5 17.4472C21.2327 17.4472 24.7373 18.5447 27.3763 20.5392C29.9268 22.4668 31.3696 25.01 31.4627 27.7256C31.4673 27.8804 31.6302 28 31.835 28H34.6275C34.6772 28 34.7264 27.9925 34.7722 27.9779C34.818 27.9633 34.8595 27.942 34.8942 27.9151C34.9289 27.8882 34.9561 27.8564 34.9743 27.8214C34.9924 27.7864 35.0011 27.7491 34.9999 27.7116C34.9533 26.0301 34.4926 24.3945 33.6269 22.8503ZM17.5 14.7739C15.3637 14.7739 13.3531 14.1442 11.8405 13.001C10.3278 11.8578 9.49473 10.3382 9.49473 8.72362C9.49473 7.10905 10.3278 5.58945 11.8405 4.44623C13.3531 3.30301 15.3637 2.67337 17.5 2.67337C19.6363 2.67337 21.6469 3.30301 23.1595 4.44623C24.6722 5.58945 25.5053 7.10905 25.5053 8.72362C25.5053 10.3382 24.6722 11.8578 23.1595 13.001C21.6469 14.1442 19.6363 14.7739 17.5 14.7739Z" fill="black"/>
<path d="M33.6269 22.8503C32.7489 21.2785 31.4748 19.8508 29.8756 18.6467C28.2812 17.4392 26.3925 16.4764 24.3138 15.8116C24.2952 15.8045 24.2766 15.801 24.2579 15.794C27.1575 14.2111 29.0425 11.6327 29.0425 8.72362C29.0425 3.90452 23.8763 0 17.5 0C11.1237 0 5.95752 3.90452 5.95752 8.72362C5.95752 11.6327 7.84248 14.2111 10.7421 15.7975C10.7234 15.8045 10.7048 15.808 10.6862 15.8151C8.60112 16.4799 6.73012 17.4332 5.12442 18.6503C3.52667 19.8553 2.25278 21.2827 1.37311 22.8538C0.508926 24.3918 0.0428512 26.0409 0.000116384 27.7116C-0.00112585 27.7491 0.00758698 27.7864 0.0257417 27.8214C0.0438965 27.8564 0.0711257 27.8882 0.105825 27.9151C0.140524 27.942 0.181991 27.9633 0.227783 27.9779C0.273575 27.9925 0.322765 28 0.372454 28H3.16499C3.36977 28 3.53267 27.8769 3.53733 27.7256C3.63041 25.01 5.07322 22.4668 7.62373 20.5392C10.2627 18.5447 13.7673 17.4472 17.5 17.4472C21.2327 17.4472 24.7373 18.5447 27.3763 20.5392C29.9268 22.4668 31.3696 25.01 31.4627 27.7256C31.4673 27.8804 31.6302 28 31.835 28H34.6275C34.6772 28 34.7264 27.9925 34.7722 27.9779C34.818 27.9633 34.8595 27.942 34.8942 27.9151C34.9289 27.8882 34.9561 27.8564 34.9743 27.8214C34.9924 27.7864 35.0011 27.7491 34.9999 27.7116C34.9533 26.0301 34.4926 24.3945 33.6269 22.8503ZM17.5 14.7739C15.3637 14.7739 13.3531 14.1442 11.8405 13.001C10.3278 11.8578 9.49473 10.3382 9.49473 8.72362C9.49473 7.10905 10.3278 5.58945 11.8405 4.44623C13.3531 3.30301 15.3637 2.67337 17.5 2.67337C19.6363 2.67337 21.6469 3.30301 23.1595 4.44623C24.6722 5.58945 25.5053 7.10905 25.5053 8.72362C25.5053 10.3382 24.6722 11.8578 23.1595 13.001C21.6469 14.1442 19.6363 14.7739 17.5 14.7739Z" fill="black"/>
</svg>
