<svg width="103" height="37" viewBox="0 0 103 37" fill="none" xmlns="http://www.w3.org/2000/svg">
<mask id="mask0_3_8" style="mask-type:alpha" maskUnits="userSpaceOnUse" x="0" y="0" width="103" height="31">
<path d="M0.999994 27.7545C0.999994 27.7545 -0.010655 0.656747 2.5 1.50004C5.01065 2.34334 31.1491 3.50005 41 3.50005C50.8509 3.50005 87.9772 2.18659 97.5177 0.500001C106.144 -1.02491 99.9036 24.7853 98.9992 28.7088C98.9944 28.8614 98.9682 29.0126 98.9155 29.16C98.8674 29.2947 98.9033 29.1248 98.9992 28.7088C99.0401 27.4059 97.5177 26 97.5177 26C97.5177 26 80.0777 30.8855 64.5116 30.8855C48.9456 30.8855 35.647 29.16 31.63 29.16H13.5533C9.53622 29.16 0.999994 27.7545 0.999994 27.7545Z" fill="#E5E5E5"/>
</mask>
<g mask="url(#mask0_3_8)">
<path d="M7.63 31.34C6.45133 31.34 5.37467 31.2607 4.4 31.102C3.448 30.966 2.71133 30.8187 2.19 30.66V28.79H6.95C8.65 28.79 9.86267 28.4613 10.588 27.804C11.336 27.124 11.71 26.1493 11.71 24.88C11.71 23.9507 11.472 23.2027 10.996 22.636C10.5427 22.0693 9.942 21.5933 9.194 21.208C8.46867 20.8227 7.68667 20.4487 6.848 20.086C6.032 19.7007 5.25 19.236 4.502 18.692C3.77667 18.1253 3.176 17.4 2.7 16.516C2.24667 15.6093 2.02 14.4307 2.02 12.98C2.02 11.0987 2.60933 9.61401 3.788 8.52601C4.96667 7.41535 6.70067 6.86001 8.99 6.86001C10.1913 6.86001 11.268 6.92801 12.22 7.06401C13.1947 7.20001 13.9313 7.35868 14.43 7.54001V9.41001H9.67C8.55933 9.41001 7.68667 9.72735 7.052 10.362C6.41733 10.9967 6.1 11.8693 6.1 12.98C6.1 13.9773 6.32667 14.782 6.78 15.394C7.256 15.9833 7.85667 16.482 8.582 16.89C9.33 17.2753 10.112 17.6607 10.928 18.046C11.7667 18.4087 12.5487 18.862 13.274 19.406C14.022 19.95 14.6227 20.6527 15.076 21.514C15.552 22.3753 15.79 23.4973 15.79 24.88C15.79 26.92 15.1553 28.5067 13.886 29.64C12.6167 30.7733 10.5313 31.34 7.63 31.34ZM21.7506 31V9.92002H16.4806V7.20001H31.1006V9.92002H25.8306V31H21.7506ZM40.1332 31.34C38.5465 31.34 37.1639 30.966 35.9852 30.218C34.8292 29.4473 33.9225 28.1667 33.2652 26.376C32.6305 24.5853 32.3132 22.16 32.3132 19.1C32.3132 16.04 32.6305 13.626 33.2652 11.858C33.9225 10.0673 34.8292 8.78668 35.9852 8.01601C37.1639 7.24535 38.5465 6.86001 40.1332 6.86001C41.7199 6.86001 43.0912 7.24535 44.2472 8.01601C45.4259 8.78668 46.3325 10.0673 46.9672 11.858C47.6245 13.626 47.9532 16.04 47.9532 19.1C47.9532 22.16 47.6245 24.5853 46.9672 26.376C46.3325 28.1667 45.4259 29.4473 44.2472 30.218C43.0912 30.966 41.7199 31.34 40.1332 31.34ZM40.1332 28.96C40.6092 28.96 41.0625 28.8127 41.4932 28.518C41.9465 28.2007 42.3432 27.6793 42.6832 26.954C43.0459 26.2287 43.3292 25.2313 43.5332 23.962C43.7599 22.67 43.8732 21.0493 43.8732 19.1C43.8732 17.1507 43.7599 15.5413 43.5332 14.272C43.3292 12.98 43.0459 11.9713 42.6832 11.246C42.3432 10.5207 41.9465 10.0107 41.4932 9.71601C41.0625 9.39868 40.6092 9.24001 40.1332 9.24001C39.6572 9.24001 39.1925 9.39868 38.7392 9.71601C38.3085 10.0107 37.9119 10.5207 37.5492 11.246C37.2092 11.9713 36.9259 12.98 36.6992 14.272C36.4952 15.5413 36.3932 17.1507 36.3932 19.1C36.3932 21.0493 36.4952 22.67 36.6992 23.962C36.9259 25.2313 37.2092 26.2287 37.5492 26.954C37.9119 27.6793 38.3085 28.2007 38.7392 28.518C39.1925 28.8127 39.6572 28.96 40.1332 28.96ZM58.9966 31.34C57.2512 31.34 55.7779 30.9887 54.5766 30.286C53.3979 29.5607 52.5026 28.314 51.8906 26.546C51.3012 24.7553 51.0066 22.2733 51.0066 19.1C51.0066 15.9267 51.3012 13.456 51.8906 11.688C52.4799 9.89735 53.3412 8.65068 54.4746 7.94801C55.6306 7.22268 57.0246 6.86001 58.6566 6.86001C59.8579 6.86001 60.9346 6.92801 61.8866 7.06401C62.8612 7.20001 63.5979 7.35868 64.0966 7.54001V9.41001H60.0166C59.0646 9.41001 58.2146 9.69335 57.4666 10.26C56.7186 10.804 56.1292 11.7787 55.6986 13.184C55.2906 14.5667 55.0866 16.5387 55.0866 19.1C55.0866 21.6387 55.3019 23.6107 55.7326 25.016C56.1632 26.4213 56.7752 27.4073 57.5686 27.974C58.3619 28.518 59.2912 28.79 60.3566 28.79H64.4366V30.66C63.9379 30.8187 63.2012 30.966 62.2266 31.102C61.2746 31.2607 60.1979 31.34 58.9966 31.34ZM67.3292 31V7.20001H71.4092V18.08L77.0192 7.20001H81.6092L75.3192 18.93L82.2892 31H77.6992L71.4092 19.78V31H67.3292ZM88.7333 31V23.86L82.7833 7.20001H87.0333L90.7733 18.794L94.5133 7.20001H98.7633L92.8133 23.86V31H88.7333Z" fill="black"/>
</g>
<path d="M5.00073 36.6252C2.49008 35.7819 1 28.7545 1 28.7545C1 28.7545 9.53622 30.1599 13.5533 30.1599H31.63C35.647 30.1599 48.9456 31.8855 64.5116 31.8855C80.0777 31.8855 97.5177 27 97.5177 27C97.5177 27 99.4176 28.7545 98.9155 30.1599C98.4134 31.5654 92.5555 34.0374 83.015 35.724C73.4745 37.4106 46.3575 36.6252 36.5065 36.6252C26.6556 36.6252 7.51139 37.4685 5.00073 36.6252Z" fill="black"/>
</svg>
